{"title":"Mary and Martha 2013 WEBRip 480p x264 AAC - VYTO [P2PDL]","uid":8908970,"size":320960229,"categoryP":"video","categoryS":"movies","magnet":"?xt=urn:btih:8f4630f3b8bf4c444ec902accc4b347aca86e9ee&amp;dn=Mary+and+Martha+2013+WEBRip+480p+x264+AAC+-+VYTO+%5BP2PDL%5D&amp;tr=udp%3A%2F%2Ftracker.openbittorrent.com%3A80&amp;tr=udp%3A%2F%2Fopen.demonii.com%3A1337&amp;tr=udp%3A%2F%2Ftracker.coppersurfer.tk%3A6969&amp;tr=udp%3A%2F%2Fexodus.desync.com%3A6969","seeders":1,"leechers":0,"uploader":"Vitamin_X","files":-1,"time":1378972338,"description":"_______ Visit us at our Semi Public Bittorrent Community ________\n  &lt;a href=&quot;\nhttp://p2pdl.com&quot; rel=&quot;nofollow&quot; target=&quot;_NEW&quot;&gt;\nhttp://p2pdl.com&lt;/a&gt;  _____________________________ &lt;a href=&quot; http://p2pdl.com&quot; rel=&quot;nofollow&quot; target=&quot;_NEW&quot;&gt; http://p2pdl.com&lt;/a&gt;\n\n\nMary and Martha 2013 WEBRip 480p x264 AAC - VYTO\n\n\nGenre: Drama\nPlot: Two mothers lose their sons to malaria.\nDirector: Phillip Noyce\nStars: Hilary Swank, Brenda Blethyn, Sam Claflin\n\nInfo: &lt;a href=&quot;\nhttp://www.imdb.com/title/tt2284766/&quot; rel=&quot;nofollow&quot; target=&quot;_NEW&quot;&gt;\nhttp://www.imdb.com/title/tt2284766/&lt;/a&gt;\n\nGeneral\nFormat                         : MPEG-4\nFile size                      : 302 MiB\nDuration                       : 1h 34mn\nOverall bit rate mode          : Variable\nOverall bit rate               : 444 Kbps\nVideo\nFormat                         : AVC\nBit rate                       : 401 Kbps\nWidth                          : 720 pixels\nHeight                         : 400 pixels\nDisplay aspect ratio           : 16:9\nFrame rate mode                : Constant\nFrame rate                     : 23.976 fps\nBit depth                      : 10 bits\nStream size                    : 272 MiB (90%)\nWriting library                : x264 core 138 r2358 9e941d1\n\nAudio\nFormat                         : AAC\nBit rate                       : 40.0 Kbps\nChannel(s)                     : 2 channels\nChannel positions              : Front: L R\nSampling rate                  : 48.0 KHz / 24.0 KHz\nStream size                    : 27.2 MiB (9%)\nLanguage                       : English\n\nSubtitle                       : Yes (English)\n\nSource                         : 720p.WEB-DL.H264-PublicHD\n &lt;a href=&quot;\nhttp://ultraimg.com/images/VEUh.png&quot; rel=&quot;nofollow&quot; target=&quot;_NEW&quot;&gt;\nhttp://ultraimg.com/images/VEUh.png&lt;/a&gt; &lt;a href=&quot;\nhttp://ultraimg.com/images/VoWYx.png&quot; rel=&quot;nofollow&quot; target=&quot;_NEW&quot;&gt;\nhttp://ultraimg.com/images/VoWYx.png&lt;/a&gt; &lt;a href=&quot;\nhttp://ultraimg.com/images/JIKjL.png&quot; rel=&quot;nofollow&quot; target=&quot;_NEW&quot;&gt;\nhttp://ultraimg.com/images/JIKjL.png&lt;/a&gt; &lt;a href=&quot;\nhttp://ultraimg.com/images/jhEFv.png&quot; rel=&quot;nofollow&quot; target=&quot;_NEW&quot;&gt;\nhttp://ultraimg.com/images/jhEFv.png&lt;/a&gt; &lt;a href=&quot;\nhttp://ultraimg.com/images/MXEn2.png&quot; rel=&quot;nofollow&quot; target=&quot;_NEW&quot;&gt;\nhttp://ultraimg.com/images/MXEn2.png&lt;/a&gt; &lt;a href=&quot;\nhttp://ultraimg.com/images/nAB3M.png&quot; rel=&quot;nofollow&quot; target=&quot;_NEW&quot;&gt;\nhttp://ultraimg.com/images/nAB3M.png&lt;/a&gt;\n\n----------------------------------------------------------------------------------------------------\n\n\nEncoded using revolutionary 10bit encoding, which enables us to provide you more crispier \nand sharper images at small sizes, just make sure you follow our instructions without a fault.\nRecommend to you to use latest version of VLC player. Install K-Lite Codec Pack or shark007 codecs\nin case of any kind of problem in playback (For non-VLC Media Player users). Alternatively, install\nCore AVC codecs, the fastest decoder that there is coupled with Community Center Codec Pack and play\non Windows Media Player Classic. Check sample to be sure.\nEnjoy!\n\nEncoder Notes:Looking For Early Access To Anything You Can Provide DVDScr, R5, DVDR, BluRay, Direct\nAudio, Music Releases and Seedboxes. We require dedicated servers, so as to do more \nand fast releases of movies.\nIf You Got anything to offer please contact us at &quot;&lt;a class=&quot;__cf_email__&quot; href=&quot;/cdn-cgi/l/email-protection&quot; data-cfemail=&quot;a1d1d3c6e1c9d4d2c98fc2cecc&quot;&gt;[email&amp;#160;protected]&lt;/a&gt;&lt;script cf-hash='f9e31' type=&quot;text/javascript&quot;&gt;\n/* &lt;![CDATA[ */!function(){try{var t=&quot;currentScript&quot;in document?document.currentScript:function(){for(var t=document.getElementsByTagName(&quot;script&quot;),e=t.length;e--;)if(t[e].getAttribute(&quot;cf-hash&quot;))return t[e]}();if(t&amp;&amp;t.previousSibling){var e,r,n,i,c=t.previousSibling,a=c.getAttribute(&quot;data-cfemail&quot;);if(a){for(e=&quot;&quot;,r=parseInt(a.substr(0,2),16),n=2;a.length-n;n+=2)i=parseInt(a.substr(n,2),16)^r,e+=String.fromCharCode(i);e=document.createTextNode(e),c.parentNode.replaceChild(e,c)}}}catch(u){}}();/* ]]&gt; */&lt;/script&gt;&quot;.\n\nFacebook Fan Page:  \nSearch P2PDL on FB and don't forget to hit like!!!\t\t\n\nFor more of our team uploads visit @           &lt;a href=&quot;\nhttp://thepiratebay.se/user/varuttee&quot; rel=&quot;nofollow&quot; target=&quot;_NEW&quot;&gt;\nhttp://thepiratebay.se/user/varuttee&lt;/a&gt;","torrent":{"xt":"urn:btih:8f4630f3b8bf4c444ec902accc4b347aca86e9ee","amp;dn":"Mary+and+Martha+2013+WEBRip+480p+x264+AAC+-+VYTO+%5BP2PDL%5D","amp;tr":["udp%3A%2F%2Ftracker.openbittorrent.com%3A80","udp%3A%2F%2Fopen.demonii.com%3A1337","udp%3A%2F%2Ftracker.coppersurfer.tk%3A6969","udp%3A%2F%2Fexodus.desync.com%3A6969"],"infoHash":"8f4630f3b8bf4c444ec902accc4b347aca86e9ee","infoHashBuffer":{"type":"Buffer","data":[143,70,48,243,184,191,76,68,78,201,2,172,204,75,52,122,202,134,233,238]},"announce":[],"urlList":[]}}